<svg xmlns="http://www.w3.org/2000/svg" viewBox="0 0 512 512"><title>Delete</title><g id="Delete"><g id="Delete-2" data-name="Delete"><path d="M255.9965,443.3705c-103.312,0-187.3652-84.0532-187.3652-187.3723,0-103.3155,84.0532-187.3687,187.3652-187.3687,103.319,0,187.3722,84.0532,187.3722,187.3687C443.3687,359.3173,359.3155,443.3705,255.9965,443.3705Zm0-356.261c-93.1234,0-168.8852,75.7654-168.8852,168.8887,0,93.1269,75.7618,168.8923,168.8852,168.8923,93.1268,0,168.8922-75.7654,168.8922-168.8923C424.8887,162.8749,349.1233,87.11,255.9965,87.11Z" stroke="black" stroke-width="28"/><path d="M323.1933,298.1485l-40.53-40.5328,37.6068-37.61a18.2016,18.2016,0,1,0-25.7391-25.7427l-37.61,37.61-39.4513-39.4548a18.2028,18.2028,0,0,0-25.7427,25.7427l39.4548,39.4513-42.3746,42.3746a18.2019,18.2019,0,1,0,25.7365,25.7462l42.3773-42.3747,40.5328,40.5328a18.2018,18.2018,0,1,0,25.74-25.7426Z" stroke="black" stroke-width="20"/></g></g></svg>