<svg xmlns="http://www.w3.org/2000/svg" viewBox="0 0 512 512"><title>Music</title><g id="Music"><g id="Music-2" data-name="Music"><path d="M255.8026,443.3705c-103.3155,0-187.3713-84.0532-187.3713-187.3723,0-103.3155,84.0558-187.3687,187.3713-187.3687,103.3129,0,187.3661,84.0532,187.3661,187.3687C443.1687,359.3173,359.1155,443.3705,255.8026,443.3705Zm0-356.261c-93.1268,0-168.8913,75.7654-168.8913,168.8887,0,93.1269,75.7645,168.8923,168.8913,168.8923,93.1243,0,168.8861-75.7654,168.8861-168.8923C424.6887,162.8749,348.9269,87.11,255.8026,87.11Z"/><path d="M313.0942,215.278c0-2.4367-2.3778-5.2606-3.9548-6.2216a9.9968,9.9968,0,0,0-6.8006-.9029l-90.3214,23.599a7.8672,7.8672,0,0,0-5.8767,7.6137v6.9582l-.0334.0088v66.0079a24.742,24.742,0,0,1,.2772,14.7374c-4.1431,15.4589-20.03,27.9849-35.4851,27.9849-15.4616,0-24.6277-12.526-20.4882-27.9849,4.143-15.4616,20.0323-27.9875,35.4851-27.9875.2033,0,.3969.0272.594.0334l-1.1545-94.1864a13.07,13.07,0,0,1,9.72-12.6368l121.8968-32.35a13.0739,13.0739,0,0,1,16.4287,12.6377l-1.17,112.9806a25.4686,25.4686,0,0,1-.2649,13.0248C327.8042,314.05,311.92,326.58,296.4622,326.58s-24.6277-12.5294-20.4856-27.9849c4.14-15.458,20.03-27.9875,35.4852-27.9875.388,0,.7541.0458,1.14.0581Z"/></g></g></svg>