<svg xmlns="http://www.w3.org/2000/svg" viewBox="0 0 512 512"><title>Pause</title><g id="Pause"><g id="Pause-2" data-name="Pause"><path d="M256,443.3705c-103.3155,0-187.3687-84.0532-187.3687-187.3723C68.6313,152.6827,152.6845,68.63,256,68.63s187.3687,84.0532,187.3687,187.3687C443.3687,359.3173,359.3155,443.3705,256,443.3705ZM256,87.11c-93.1242,0-168.8887,75.7654-168.8887,168.8887,0,93.1269,75.7645,168.8923,168.8887,168.8923s168.8887-75.7654,168.8887-168.8923C424.8887,162.8749,349.1269,87.11,256,87.11Z"/><path d="M237.4857,308.888a20.4243,20.4243,0,0,1-20.4231,20.4239h0a20.425,20.425,0,0,1-20.4239-20.4239V203.1058a20.4251,20.4251,0,0,1,20.4239-20.4239h0a20.4243,20.4243,0,0,1,20.4231,20.4239Z"/><path d="M314.1345,308.888a20.4242,20.4242,0,0,1-20.423,20.4239h0a20.4249,20.4249,0,0,1-20.4239-20.4239V203.1058a20.425,20.425,0,0,1,20.4239-20.4239h0a20.4242,20.4242,0,0,1,20.423,20.4239Z"/></g></g></svg>