<svg xmlns="http://www.w3.org/2000/svg" viewBox="0 0 512 512"><title>Play</title><g id="Play"><g id="Play-2" data-name="Play"><path d="M327.2132,254.2567,216.0313,190.07a9.1168,9.1168,0,0,0-13.6752,7.8936V326.35a9.1129,9.1129,0,0,0,4.5584,7.8945,9.0047,9.0047,0,0,0,4.5584,1.2259,9.1,9.1,0,0,0,4.5584-1.2259l111.1819-64.1872a9.1251,9.1251,0,0,0,0-15.8Z"/><path d="M256.7956,443.3687C153.4827,443.3687,69.43,359.3155,69.43,256S153.4827,68.6313,256.7956,68.6313c103.3181,0,187.3749,84.0532,187.3749,187.3687S360.1137,443.3687,256.7956,443.3687Zm0-356.2574C163.6713,87.1113,87.91,162.8758,87.91,256c0,93.1269,75.7618,168.8887,168.8861,168.8887,93.1269,0,168.8949-75.768,168.8949-168.8887C425.6905,162.8731,349.9225,87.1113,256.7956,87.1113Z"/></g></g></svg>